HIERARCHY
ROOT Hips
{
	OFFSET 0.000000 0.000000 0.000000
	CHANNELS 6 Xposition Yposition Zposition Zrotation Yrotation Xrotation 
	JOINT LHipJoint
	{
		OFFSET 0.000000 0.000000 0.000000
		CHANNELS 3 Zrotation Yrotation Xrotation
		JOINT LeftUpLeg
		{
			OFFSET 1.363060 -1.794630 0.839290
			CHANNELS 3 Zrotation Yrotation Xrotation
			JOINT LeftLeg
			{
				OFFSET 2.448110 -6.726130 0.000000
				CHANNELS 3 Zrotation Yrotation Xrotation
				JOINT LeftFoot
				{
					OFFSET 2.562200 -7.039590 0.000000
					CHANNELS 3 Zrotation Yrotation Xrotation
					JOINT LeftToeBase
					{
						OFFSET 0.157640 -0.433110 2.322550
						CHANNELS 3 Zrotation Yrotation Xrotation
						End Site
						{
							OFFSET 0.000000 0.000000 0.000000
						}
					}
				}
			}
		}
	}
	JOINT RHipJoint
	{
		OFFSET 0.000000 0.000000 0.000000
		CHANNELS 3 Zrotation Yrotation Xrotation
		JOINT RightUpLeg
		{
			OFFSET -1.305520 -1.794630 0.839290
			CHANNELS 3 Zrotation Yrotation Xrotation
			JOINT RightLeg
			{
				OFFSET -2.542530 -6.985550 0.000000
				CHANNELS 3 Zrotation Yrotation Xrotation
				JOINT RightFoot
				{
					OFFSET -2.568260 -7.056230 0.000000
					CHANNELS 3 Zrotation Yrotation Xrotation
					JOINT RightToeBase
					{
						OFFSET -0.164730 -0.452590 2.363150
						CHANNELS 3 Zrotation Yrotation Xrotation
						End Site
						{
							OFFSET 0.000000 0.000000 0.000000
						}
					}
				}
			}
		}
	}
}
MOTION
Frames: 33
Frame Time: 0.008333
17.193828 16.773428 2.604032 103.148484 -88.108263 -51.663555 -8.604717 -0.536785 4.069897 -7.290941 -9.501785 -58.035825 -2.275003 -1.671234 15.151318 4.247211 15.938555 -13.261081 -0.382600 0.000000 -42.788200 8.632702 0.365386 4.836794 3.422052 5.870697 -59.652302 2.889214 0.910466 15.077786 -2.880587 -7.724617 -12.422072 -0.339300 -0.000000 -63.803700
17.178947 16.683828 2.600716 105.018237 -87.972164 -52.343511 -8.512587 -0.549931 4.178763 -7.129490 -10.154702 -60.692523 -2.254650 -1.415960 17.934456 4.457723 15.978705 -14.849492 -0.843800 0.000000 -42.847800 8.578898 0.412800 5.033656 2.766800 6.472315 -62.557040 2.789340 0.530884 18.302486 -3.057479 -7.663036 -14.188291 -0.033401 0.000000 -63.325300
17.163627 16.579933 2.597464 106.061639 -87.828900 -52.170828 -8.422606 -0.545863 4.308777 -6.978142 -10.806779 -63.482752 -2.235668 -1.130446 20.865077 4.661760 15.962587 -16.486275 -1.322301 0.000000 -42.864100 8.543237 0.468647 5.244751 2.075378 7.012987 -65.581487 2.678139 0.125259 21.672870 -3.223067 -7.558275 -15.978375 0.279499 0.000000 -62.708800
17.147355 16.460807 2.594300 106.273833 -87.673640 -51.141175 -8.336497 -0.524368 4.467876 -6.823033 -11.479517 -66.400007 -2.210766 -0.816851 23.926225 4.861806 15.914513 -18.150130 -1.809100 -0.000000 -42.787199 8.528327 0.535306 5.471247 1.350987 7.473817 -68.723647 2.555177 -0.305443 25.181136 -3.375937 -7.415465 -17.779668 0.593399 0.000000 -61.936100
17.129931 16.325910 2.591429 105.666266 -87.505139 -49.271185 -8.257625 -0.488124 4.660526 -6.648100 -12.182673 -69.438335 -2.172665 -0.476605 27.111666 5.058816 15.850792 -19.823985 -2.297799 0.000000 -42.566300 8.533819 0.613271 5.714235 0.601995 7.845039 -71.971400 2.419519 -0.758686 28.813347 -3.517585 -7.249727 -19.580847 0.903500 -0.000000 -60.993000
17.110969 16.175071 2.589012 104.319083 -87.321763 -46.650048 -8.189362 -0.442037 4.887987 -6.437389 -12.920030 -72.586357 -2.114043 -0.111875 30.417497 5.253352 15.786613 -21.493322 -2.784500 -0.000000 -42.156600 8.557873 0.702421 5.973351 -0.161048 8.121139 -75.305824 2.269942 -1.231529 32.554690 -3.650965 -7.079634 -21.373610 1.207600 -0.000000 -59.874701
17.090128 16.008231 2.587177 102.374445 -87.118839 -43.427417 -8.133429 -0.391820 5.149000 -6.177567 -13.694075 -75.829465 -2.027936 0.273846 33.840048 5.446404 15.739544 -23.145200 -3.267501 0.000000 -41.537000 8.598956 0.803418 6.246501 -0.928661 8.297582 -78.706181 2.104767 -1.721564 36.394368 -3.779501 -6.923588 -23.153494 1.506200 0.000001 -58.591900
17.067639 15.826060 2.586136 99.980586 -86.895563 -39.768214 -8.090575 -0.345175 5.437487 -5.857868 -14.496547 -79.143163 -1.908766 0.676598 37.375345 5.637427 15.722763 -24.768310 -3.747000 -0.000000 -40.705200 8.654441 0.916074 6.529391 -1.686713 8.376311 -82.139825 1.922173 -2.225307 40.314864 -3.907135 -6.802034 -24.914808 1.801799 0.000000 -57.174601
17.043247 15.629650 2.586027 97.297564 -86.652635 -35.847786 -8.059862 -0.309761 5.744781 -5.471777 -15.314521 -82.496589 -1.752789 1.091104 41.013907 5.825364 15.748284 -26.351904 -4.223800 0.000000 -39.687100 8.722118 1.040158 6.816287 -2.420369 8.363635 -85.567750 1.720112 -2.738343 44.294192 -4.037421 -6.734148 -26.650600 2.098500 -0.000000 -55.674300
17.017115 15.420692 2.586947 94.472639 -86.393390 -31.832744 -8.038794 -0.292487 6.059981 -5.018132 -16.130641 -85.851517 -1.558480 1.511345 44.739341 6.008295 15.825475 -27.884451 -4.698900 -0.000000 -38.539100 8.799878 1.175562 7.100259 -3.114621 8.269920 -88.946487 1.496614 -3.255509 48.305354 -4.172896 -6.736032 -28.351151 2.401300 -0.000000 -54.162700
16.989126 15.201334 2.588988 91.630366 -86.123615 -27.864159 -8.024109 -0.298302 6.371785 -4.501682 -16.926414 -89.165779 -1.326695 1.930689 48.527048 6.184169 15.961585 -29.355217 -5.173699 -0.000000 -37.330500 8.885767 1.322008 7.374115 -3.755674 8.109428 -92.230738 1.250144 -3.770616 52.315769 -4.314598 -6.818653 -30.003854 2.714900 0.000000 -52.725600
16.959612 14.974229 2.592202 88.858396 -85.850963 -24.045904 -8.012564 -0.329778 6.669794 -3.932264 -17.683686 -92.396190 -1.060399 2.342759 52.345001 6.350607 16.160453 -30.751733 -5.648101 0.000000 -36.159700 8.977667 1.479289 7.631224 -4.333605 7.898127 -95.377704 0.979671 -4.277200 56.290725 -4.462106 -6.987697 -31.593846 3.043200 0.000000 -51.451900
16.928065 14.742179 2.596556 86.220226 -85.582855 -20.451459 -8.001752 -0.386877 6.945916 -3.324134 -18.388120 -95.501794 -0.764320 2.741613 56.155092 6.505739 16.422958 -32.063467 -6.121900 0.000000 -35.120300 9.073327 1.646567 7.866355 -4.842509 7.652464 -98.349769 0.685330 -4.768548 60.193248 -4.613418 -7.241747 -33.105485 3.388000 0.000000 -50.422200
16.895061 14.508640 2.601988 83.757195 -85.327211 -17.136943 -7.990142 -0.468710 7.190755 -2.697962 -19.026419 -98.437132 -0.444506 3.122686 59.916818 6.647356 16.745761 -33.281013 -6.593599 -0.000000 -34.297500 9.169436 1.823228 8.072279 -5.278682 7.387533 -101.107041 0.368870 -5.238223 63.985863 -4.764921 -7.572430 -34.524107 3.748800 0.000000 -49.692000
16.859332 14.276152 2.608433 81.462364 -85.084545 -14.088477 -7.977342 -0.568606 7.410544 -2.065165 -19.603529 -101.186194 -0.107204 3.480773 63.583733 6.777049 17.125037 -34.403753 -7.063600 0.000000 -33.718700 9.265527 2.005883 8.255432 -5.653384 7.112788 -103.644024 0.031924 -5.681104 67.638085 -4.914221 -7.970965 -35.836091 4.123500 0.000000 -49.313200
16.821624 14.048415 2.615738 79.358408 -84.861105 -11.343394 -7.963797 -0.685337 7.594686 -1.452185 -20.109398 -103.702609 0.240614 3.813976 67.119922 6.892472 17.550735 -35.426494 -7.529100 0.000000 -33.453300 9.357514 2.193647 8.406081 -5.964346 6.838557 -105.921724 -0.319914 -6.092298 71.117446 -5.056203 -8.417293 -37.036472 4.507000 -0.000001 -49.271900
16.781723 13.828377 2.623594 77.457210 -84.653933 -8.916440 -7.950036 -0.814077 7.743460 -0.880846 -20.550358 -105.959550 0.591673 4.119816 70.487821 6.994638 18.013225 -36.356390 -7.990400 -0.000000 -33.491400 9.444098 2.383918 8.524466 -6.221643 6.567507 -107.925160 -0.681563 -6.468275 74.400935 -5.187551 -8.894019 -38.123876 4.893800 -0.000000 -49.548500
16.738758 13.617944 2.632051 75.686523 -84.463101 -6.723744 -7.937515 -0.947980 7.867564 -0.353030 -20.935042 -107.960175 0.940546 4.396253 73.657946 7.085489 18.500678 -37.201479 -8.445900 -0.000000 -33.818100 9.525507 2.571446 8.619207 -6.432347 6.306308 -109.662653 -1.046439 -6.807185 77.468966 -5.307708 -9.386023 -39.104297 5.279000 -0.000000 -50.097000
16.693444 13.420059 2.640382 74.118400 -84.280579 -4.854113 -7.926425 -1.085865 7.958683 0.097003 -21.269141 -109.660480 1.278713 4.642941 76.606410 7.165223 19.000404 -37.981385 -8.899000 -0.000000 -34.372800 9.600382 2.755124 8.683505 -6.603882 6.050737 -111.106046 -1.407927 -7.107041 80.310364 -5.414464 -9.876292 -39.992999 5.658300 0.000000 -50.843200
16.645456 13.236534 2.647989 72.778787 -84.097566 -3.335306 -7.917122 -1.224140 8.019128 0.450194 -21.564891 -111.045645 1.598847 4.859778 79.315798 7.235673 19.499586 -38.719998 -9.353600 0.000000 -35.048600 9.669794 2.931228 8.720427 -6.745271 5.797999 -112.252365 -1.759444 -7.367297 82.918738 -5.508564 -10.353093 -40.811707 6.030000 -0.000000 -51.685600
16.594697 13.068281 2.655014 71.544695 -83.916980 -2.042409 -7.911365 -1.359650 8.056098 0.711642 -21.821941 -112.121875 1.897177 5.047203 81.781584 7.297026 19.985549 -39.428005 -9.807500 0.000000 -35.901700 9.733742 3.095781 8.733451 -6.849697 5.559966 -113.104881 -2.094761 -7.588450 85.293568 -5.594082 -10.817892 -41.580929 6.397900 0.000001 -52.605200
16.541560 12.916786 2.660145 70.554093 -83.722647 -1.124916 -7.908697 -1.491383 8.064516 0.845024 -22.053922 -112.858712 2.164748 5.207322 83.996528 7.350999 20.445545 -40.143380 -10.270300 0.000000 -36.696000 9.794288 3.246108 8.721903 -6.929484 5.326237 -113.652866 -2.408882 -7.770835 87.438815 -5.672904 -11.265858 -42.332348 6.765500 0.000000 -53.449300
16.485972 12.782447 2.663011 69.771260 -83.512660 -0.547560 -7.910638 -1.617421 8.047550 0.844766 -22.261195 -113.256070 2.397399 5.342354 85.964166 7.397601 20.868093 -40.881019 -10.742000 0.000000 -37.405300 9.852572 3.378916 8.688075 -6.981980 5.102763 -113.898395 -2.697621 -7.915720 89.361581 -5.749443 -11.704710 -43.087937 7.140500 0.000000 -54.172700
16.428188 12.665446 2.662990 69.210200 -83.283194 -0.323175 -7.918519 -1.735711 8.006987 0.701895 -22.444309 -113.316561 2.591450 5.455397 87.690216 7.436688 21.243196 -41.649956 -11.220500 0.000001 -37.990500 9.910192 3.491639 8.634616 -7.009161 4.891628 -113.848956 -2.958239 -8.024927 91.070954 -5.827312 -12.143449 -43.863278 7.530000 0.000000 -54.739500
16.367834 12.565741 2.659590 68.861843 -83.034858 -0.438203 -7.934409 -1.843859 7.946248 0.415825 -22.597797 -113.050713 2.744783 5.549692 89.182117 7.467446 21.560958 -42.449962 -11.699300 0.000000 -38.424700 9.968214 3.581963 8.564802 -7.010647 4.698172 -113.514840 -3.188693 -8.100199 92.575009 -5.909385 -12.592380 -44.664231 7.940400 -0.000000 -55.128600
16.305277 12.483206 2.652597 68.703028 -82.772155 -0.861352 -7.960373 -1.938923 7.869262 -0.006034 -22.711983 -112.479277 2.857247 5.628308 90.448163 7.488456 21.813765 -43.265583 -12.165800 -0.000000 -38.730300 10.027147 3.648826 8.482086 -6.986042 4.528208 -112.913947 -3.387748 -8.143751 93.880328 -5.996906 -13.059950 -45.483326 8.374000 0.000000 -55.355000
16.240145 12.417412 2.641895 68.713306 -82.502705 -1.554039 -7.998438 -2.017393 7.781587 -0.547673 -22.774862 -111.633130 2.930079 5.693517 91.495046 7.497894 21.995071 -44.068860 -12.602300 0.000001 -38.962200 10.087504 3.691666 8.391420 -6.936321 4.387364 -112.071177 -3.554653 -8.157638 94.990571 -6.088971 -13.549469 -46.299772 8.828000 0.000000 -55.458599
16.172139 12.368137 2.627669 68.860116 -82.236415 -2.466014 -8.049475 -2.076018 7.688944 -1.184315 -22.773849 -110.552007 2.966063 5.746734 92.328480 7.493598 22.100596 -44.821221 -12.987400 -0.000000 -39.200100 10.149138 3.711084 8.297812 -6.863325 4.280474 -111.017639 -3.689088 -8.144043 95.906538 -6.182536 -14.057902 -47.081064 9.292700 0.000000 -55.499200
16.100786 12.334845 2.610323 69.103457 -81.985531 -3.527452 -8.113414 -2.111649 7.598336 -1.881549 -22.697847 -109.285553 2.968989 5.787887 92.952085 7.473485 22.128302 -45.478074 -13.298300 0.000000 -39.536200 10.211930 3.708147 8.207250 -6.768682 4.212336 -109.791534 -3.790717 -8.104975 96.625645 -6.272988 -14.575052 -47.787010 9.752200 0.000000 -55.552600
16.026015 12.317641 2.590150 69.440060 -81.757715 -4.717187 -8.188526 -2.122765 7.513767 -2.610634 -22.542674 -107.874087 2.942295 5.816063 93.366378 7.435863 22.080018 -45.997017 -13.516800 -0.000000 -40.036100 10.275453 3.684668 8.124367 -6.659903 4.181256 -108.427159 -3.859715 -8.042211 97.145223 -6.353772 -15.081650 -48.376566 10.183700 -0.000000 -55.671800
15.946991 12.316048 2.567883 69.840884 -81.561475 -5.975303 -8.272119 -2.108447 7.441704 -3.333735 -22.309562 -106.368727 2.890122 5.829034 93.571442 7.379986 21.961055 -46.340042 -13.628500 -0.000000 -40.763500 10.339291 3.642132 8.055178 -6.541987 4.186156 -106.967488 -3.896099 -7.957809 97.460214 -6.418696 -15.553932 -48.810821 10.561500 0.000000 -55.926600
15.863385 12.330041 2.544338 70.269796 -81.405223 -7.241542 -8.360637 -2.069363 7.386855 -4.014572 -22.003866 -104.813908 2.816209 5.824074 93.565673 7.306087 21.780353 -46.480702 -13.627400 0.000000 -41.745901 10.402152 3.582314 8.003273 -6.416992 4.225968 -105.449720 -3.899511 -7.853660 97.563784 -6.462390 -15.965983 -49.060222 10.859800 -0.000000 -56.361300
15.774363 12.359612 2.519870 70.754464 -81.287548 -8.526674 -8.450653 -2.006726 7.350767 -4.637625 -21.640820 -103.229956 2.722122 5.798185 93.343851 7.216419 21.552250 -46.411953 -13.519600 0.000000 -42.939600 10.463543 3.506817 7.970549 -6.293496 4.290956 -103.897694 -3.869905 -7.731290 97.451734 -6.480571 -16.291323 -49.113549 11.057299 -0.000000 -56.951001
